# xmcd CD database file
#
# Track frame offsets:
#	150
#	21122
#	38434
#	63065
#	80985
#	94023
#	125000
#	137650
#	173348
#	186295
#	217585
#	235397
#	265006
#	278499
#	301921
#
# Disc length: 4305 seconds
#
# Revision: 6
# Processed by: cddbd v1.5.2PL0 Copyright (c) Steve Scherf et al.
# Submitted via: CDex 1.70beta2
#
DISCID=bb10cf0f
DTITLE=Eric Clapton - Blues - CD 1 (Studio)
DYEAR=1999
DGENRE=Classical
TTITLE0=Before You Accuse Me (Take A Look At Yourself) (Version 1) (prev. unreleased)
TTITLE1=Mean Old World
TTITLE2=Ain't That Loving You
TTITLE3=The Sky Is Crying
TTITLE4=Cryin'
TTITLE5=Have You Ever Loved A Woman
TTITLE6=Alberta (prev. unreleased)
TTITLE7=Early In The Morning
TTITLE8=Give Me Strength
TTITLE9=Meet Me (Down At The Bottom) (prev. unreleased)
TTITLE10=County Jail Blues
TTITLE11=Floating Bridges
TTITLE12=Blow Wind Blow
TTITLE13=To Make Somebody Happy
TTITLE14=Before You Accuse Me (Take A Look At Yourself) (Version 2) (prev. unreleased)
EXTD=YEAR: 1999
EXTT0=
EXTT1=
EXTT2=
EXTT3=
EXTT4=
EXTT5=
EXTT6=
EXTT7=
EXTT8=
EXTT9=
EXTT10=
EXTT11=
EXTT12=
EXTT13=
EXTT14=
PLAYORDER=
